<?xml version="1.0" standalone="no"?><!DOCTYPE svg PUBLIC "-//W3C//DTD SVG 1.1//EN" "http://www.w3.org/Graphics/SVG/1.1/DTD/svg11.dtd"><svg t="1759313263387" class="icon" viewBox="0 0 1024 1024" version="1.1" xmlns="http://www.w3.org/2000/svg" p-id="984" xmlns:xlink="http://www.w3.org/1999/xlink" width="200" height="200"><path d="M629.333333 512a117.333333 117.333333 0 1 0-234.666666 0 117.333333 117.333333 0 0 0 234.666666 0z m64 0a181.333333 181.333333 0 1 1-362.666666 0 181.333333 181.333333 0 0 1 362.666666 0z" fill="#101010" p-id="985"></path><path d="M906.666667 512c0-10.112-2.56-20.992-10.026667-37.461333-7.808-17.109333-19.754667-37.802667-37.248-68.010667l-82.090667-141.44c-17.450667-30.08-29.397333-50.602667-40.32-65.834667-10.581333-14.634667-18.773333-22.229333-27.52-27.306666-8.789333-5.034667-19.456-8.32-37.461333-10.069334-18.688-1.834667-42.538667-1.877333-77.354667-1.877333h-165.290666c-34.816 0-58.666667 0-77.354667 1.877333-18.005333 1.749333-28.672 5.034667-37.461333 10.069334-8.789333 5.077333-16.938667 12.672-27.477334 27.306666-10.965333 15.232-22.912 35.754667-40.362666 65.834667L164.608 406.528c-17.493333 30.208-29.44 50.901333-37.248 68.010667-7.466667 16.469333-10.026667 27.349333-10.026667 37.461333s2.56 20.992 10.026667 37.461333c7.808 17.109333 19.754667 37.802667 37.248 68.010667l82.090667 141.44c17.450667 30.08 29.397333 50.602667 40.362666 65.834667 10.538667 14.634667 18.688 22.229333 27.477334 27.306666 8.789333 5.034667 19.456 8.32 37.461333 10.069334 18.688 1.834667 42.538667 1.877333 77.354667 1.877333h165.290666c34.816 0 58.666667 0 77.354667-1.877333 18.005333-1.749333 28.672-5.034667 37.461333-10.069334 8.789333-5.077333 16.938667-12.672 27.52-27.306666 10.922667-15.232 22.869333-35.754667 40.32-65.834667l82.090667-141.44c17.493333-30.208 29.44-50.901333 37.248-68.010667 7.466667-16.469333 10.026667-27.349333 10.026667-37.461333z m64 0c0 22.442667-6.101333 42.666667-15.786667 64-9.386667 20.650667-23.253333 44.501333-40.106667 73.6l-82.090666 141.44c-16.853333 29.013333-30.592 52.778667-43.818667 71.125333-13.653333 18.944-28.117333 34.218667-47.488 45.354667-19.413333 11.178667-39.893333 16.042667-63.146667 18.346667-11.264 1.066667-23.765333 1.621333-37.632 1.877333l-45.909333 0.256h-165.376c-33.536 0-61.013333 0.042667-83.541333-2.133333-23.253333-2.304-43.733333-7.168-63.146667-18.346667-19.413333-11.136-33.877333-26.453333-47.488-45.354667-13.226667-18.346667-26.965333-42.112-43.818667-71.125333l-82.048-141.44c-16.896-29.098667-30.72-52.906667-40.106666-73.6-9.728-21.333333-15.829333-41.557333-15.829334-64s6.101333-42.666667 15.786667-64c9.386667-20.650667 23.253333-44.501333 40.106667-73.6L191.36 232.96c16.853333-29.013333 30.592-52.778667 43.818667-71.125333 13.653333-18.944 28.074667-34.218667 47.488-45.397334 19.413333-11.136 39.893333-16 63.146666-18.261333 22.528-2.218667 50.005333-2.176 83.584-2.176h165.290667c33.578667 0 61.056-0.042667 83.626667 2.133333 23.210667 2.304 43.690667 7.168 63.104 18.346667 19.370667 11.136 33.877333 26.453333 47.488 45.354667 13.226667 18.346667 26.965333 42.112 43.818666 71.125333l82.090667 141.44c16.853333 29.098667 30.72 52.906667 40.106667 73.6 9.685333 21.333333 15.786667 41.557333 15.786666 64z" fill="#101010" p-id="986"></path></svg>